<?xml version="1.0" encoding="UTF-8" standalone="no"?>
<!-- Created with Inkscape (http://www.inkscape.org/) -->

<svg
   xmlns:dc="http://purl.org/dc/elements/1.1/"
   xmlns:cc="http://creativecommons.org/ns#"
   xmlns:rdf="http://www.w3.org/1999/02/22-rdf-syntax-ns#"
   xmlns:svg="http://www.w3.org/2000/svg"
   xmlns="http://www.w3.org/2000/svg"
   xmlns:sodipodi="http://sodipodi.sourceforge.net/DTD/sodipodi-0.dtd"
   xmlns:inkscape="http://www.inkscape.org/namespaces/inkscape"
   width="744.09448819"
   height="1052.3622047"
   id="svg2"
   version="1.1"
   inkscape:version="0.48.4 r9939"
   sodipodi:docname="logo.svg">
  <defs
     id="defs4" />
  <sodipodi:namedview
     id="base"
     pagecolor="#ffffff"
     bordercolor="#666666"
     borderopacity="1.0"
     inkscape:pageopacity="0.0"
     inkscape:pageshadow="2"
     inkscape:zoom="0.4816421"
     inkscape:cx="406.1381"
     inkscape:cy="389.56534"
     inkscape:document-units="px"
     inkscape:current-layer="layer2"
     showgrid="false"
     inkscape:window-width="1024"
     inkscape:window-height="550"
     inkscape:window-x="0"
     inkscape:window-y="22"
     inkscape:window-maximized="1"
     showguides="true"
     inkscape:guide-bbox="true" />
  <metadata
     id="metadata7">
    <rdf:RDF>
      <cc:Work
         rdf:about="">
        <dc:format>image/svg+xml</dc:format>
        <dc:type
           rdf:resource="http://purl.org/dc/dcmitype/StillImage" />
        <dc:title></dc:title>
      </cc:Work>
    </rdf:RDF>
  </metadata>
  <g
     inkscape:label="Layer 1"
     inkscape:groupmode="layer"
     id="layer1"
     style="display:none">
    <text
       xml:space="preserve"
       style="font-size:64.64013672px;font-style:normal;font-variant:normal;font-weight:normal;font-stretch:normal;line-height:125%;letter-spacing:0px;word-spacing:0px;fill:none;stroke:#999999;font-family:Utopia;-inkscape-font-specification:Utopia"
       x="252.37747"
       y="829.24463"
       id="text3050"
       sodipodi:linespacing="125%"><tspan
         sodipodi:role="line"
         x="252.37747"
         y="829.24463"
         id="tspan3054"
         style="font-size:413.6968689px;font-style:normal;font-variant:normal;font-weight:normal;font-stretch:normal;fill:none;stroke:#999999;font-family:Utopia;-inkscape-font-specification:Utopia">A</tspan></text>
    <g
       style="font-size:40px;font-style:normal;font-weight:normal;line-height:125%;letter-spacing:0px;word-spacing:0px;fill:none;stroke:#999999;font-family:Sans"
       id="text3077"
       transform="translate(0.6859373,-72.88322)">
      <path
         d="m 287.11172,714.21429 9,0 0.875,1 0,160.375 c -8e-5,13.58335 -8.16674,22.25001 -24.5,26 l -6,0.5 -4.375,0 c -17.6667,0 -27.66669,-5.54166 -30,-16.625 l -0.5,-3.875 c -2e-5,-10.8333 8.79164,-17.24996 26.375,-19.25 l 4.125,-0.625 c 8.24994,4e-5 16.12494,2.66671 23.625,8 l 0.5,0 0,-154.5 0.875,-1"
         style="font-size:256px;fill:none;stroke:#999999"
         id="path3124"
         inkscape:connector-curvature="0" />
    </g>
    <g
       transform="translate(604.07122,125.25892)"
       style="font-size:40px;font-style:normal;font-weight:normal;line-height:125%;letter-spacing:0px;word-spacing:0px;fill:#000000;fill-opacity:1;stroke:#999999;font-family:Sans"
       id="text3077-4">
      <path
         inkscape:connector-curvature="0"
         d="m 287.11172,714.21429 9,0 0.875,1 0,160.375 c -8e-5,13.58335 -8.16674,22.25001 -24.5,26 l -6,0.5 -4.375,0 c -17.6667,0 -27.66669,-5.54166 -30,-16.625 l -0.5,-3.875 c -2e-5,-10.8333 8.79164,-17.24996 26.375,-19.25 l 4.125,-0.625 c 8.24994,4e-5 16.12494,2.66671 23.625,8 l 0.5,0 0,-154.5 0.875,-1"
         style="font-size:256px;stroke:#999999"
         id="path3124-7" />
    </g>
    <g
       style="font-size:40px;font-style:normal;font-weight:normal;line-height:125%;letter-spacing:0px;word-spacing:0px;fill:none;stroke:#999999;font-family:Sans"
       id="text3077-7"
       transform="translate(158.68594,-72.883217)">
      <path
         d="m 287.11172,714.21429 9,0 0.875,1 0,160.375 c -8e-5,13.58335 -8.16674,22.25001 -24.5,26 l -6,0.5 -4.375,0 c -17.6667,0 -27.66669,-5.54166 -30,-16.625 l -0.5,-3.875 c -2e-5,-10.8333 8.79164,-17.24996 26.375,-19.25 l 4.125,-0.625 c 8.24994,4e-5 16.12494,2.66671 23.625,8 l 0.5,0 0,-154.5 0.875,-1"
         style="font-size:256px;fill:none;stroke:#999999"
         id="path3124-5"
         inkscape:connector-curvature="0" />
    </g>
    <path
       style="fill:none;stroke:#999999;stroke-width:1px;stroke-linecap:butt;stroke-linejoin:miter;stroke-opacity:1"
       d="M 445.71429,809.50504 387.89858,510.92042"
       id="path3173"
       inkscape:connector-curvature="0" />
    <path
       style="fill:none;stroke:#999999;stroke-width:1px;stroke-linecap:butt;stroke-linejoin:miter;stroke-opacity:1"
       d="m 298.57143,803.07647 72.85714,-217.85715 -12.85714,-20 -90,249.28572"
       id="path3175"
       inkscape:connector-curvature="0" />
  </g>
  <g
     inkscape:groupmode="layer"
     id="layer2"
     inkscape:label="outline">
    <path
       style="fill:#008080;stroke:#004444;stroke-width:2;stroke-linecap:round;stroke-linejoin:round;stroke-miterlimit:4;stroke-opacity:1;stroke-dasharray:none"
       d="m 378.0625,548.1875 c -2.42554,0.0121 -4.82158,0.0392 -7.1875,0.0625 -21.48671,2.1853 -37.5181,22.24294 -39.8125,42.84375 -22.87052,57.44776 -40.22136,117.16248 -65.8125,173.4375 -11.83155,9.73668 -30.38578,6.90027 -40.25,19.84375 -15.40984,14.28753 -16.26777,42.49463 1.34375,55.5 23.40518,20.67609 62.56298,14.61705 81.8125,-8.84375 14.25776,-15.8855 17.20533,-37.6408 22.65625,-57.375 3.2781,-9.79828 8.23912,-21.65058 19.09375,-24.75 13.42026,-1.83787 29.15026,-4.69719 40.9375,3.78125 9.21515,10.78944 2.20828,28.55861 -10.1875,33.59375 -16.53962,16.65141 -10.80071,48.50073 10.75,58.125 30.17422,17.18155 72.16575,3.48798 89.1875,-25.96875 5.12804,-8.59558 4.60144,-18.877 2.4375,-28.28125 C 477.48067,755.34295 465.3209,721.90503 460.28125,687 450.74087,644.3281 444.94554,599.99099 426.8125,559.84375 413.10157,548.94058 395.04131,548.10274 378.0625,548.1875 z m 13.78125,128.78125 c -7.02234,7.79211 -19.0079,8.20297 -30.0625,7.21875 -2.43844,-4.59613 8.39313,-59.85378 19.6145,-61.47419 7.13389,0.81137 13.8057,42.77764 10.448,54.25544 z"
       id="path3171-3"
       inkscape:connector-curvature="0"
       sodipodi:nodetypes="scccccccccccccccscccc"
       inkscape:export-filename="/home/jan/devel/projects/aurena/android/res/drawable-ldpi/aurena.png"
       inkscape:export-xdpi="9.4021692"
       inkscape:export-ydpi="9.4021692" />
    <path
       style="fill:#006162;fill-opacity:1;stroke:#2f3939;stroke-width:0.5;stroke-linecap:round;stroke-linejoin:round;stroke-miterlimit:4;stroke-opacity:1;stroke-dasharray:none"
       d="m 380.0625,566.03125 c -9.5212,0.21341 -23.00822,2.17065 -25.40625,13.3125 -26.61267,69.91183 -51.69297,140.40039 -77.125,210.75 -3.43716,2.7333 -8.41207,-1.46843 -12.625,-0.90625 -13.07102,-1.4439 -29.45763,3.85195 -33.28125,17.75 -2.83043,11.49501 5.93796,24.46288 18.03125,24.875 17.4355,3.60358 39.70246,0.17803 48.51156,-17.15835 7.22318,-14.06664 9.71594,-30.05084 15.57012,-44.80112 5.17893,-14.91369 9.36704,-30.40914 15.1591,-44.96283 4.84755,-0.73824 10.09463,2.91951 15.39974,3.19271 23.20084,3.95973 46.89521,-1.1135 69.64073,-5.45791 4.82035,-3.51493 0.0104,-9.8495 0.59375,-14.53125 0.21155,-4.05459 -2.44782,-8.91985 -7.25,-7 -21.73229,1.84862 -45.25167,10.11296 -66.25,0.625 -6.13218,-5.20242 0.35815,-12.79198 1.4341,-18.75712 10.11249,-30.85504 20.21389,-61.74455 31.0034,-92.33663 7.46178,-5.18688 19.25814,-5.83416 26.65625,0.15625 7.33372,25.05707 11.73542,51.12146 16.98511,76.79669 7.99374,40.41589 15.42987,80.9384 23.23364,121.39081 -2.85223,4.72264 -8.58277,-0.60566 -12.9375,0.0937 -13.20775,-1.47292 -28.90978,1.58247 -36.625,13.28125 -5.7064,10.95298 1.75756,25.88849 13.875,28.03125 22.44809,7.83812 50.34927,-1.78535 62.1875,-22.5625 3.03242,-9.2341 -3.54906,-18.17214 -4.09806,-27.42637 -15.74448,-68.56603 -29.70324,-137.6304 -46.05819,-205.94863 -10.10492,-8.03073 -24.35516,-7.79345 -36.625,-8.40625 z"
       id="path3171"
       inkscape:connector-curvature="0"
       inkscape:export-filename="/home/jan/devel/projects/aurena/android/res/drawable-ldpi/aurena.png"
       inkscape:export-xdpi="9.4021692"
       inkscape:export-ydpi="9.4021692" />
    <rect
       style="opacity:0;fill:#0088aa;fill-opacity:1;stroke:#216778;stroke-width:7;stroke-linecap:round;stroke-linejoin:round;stroke-miterlimit:4;stroke-dasharray:none"
       id="rect4017"
       width="487.14285"
       height="184.28572"
       x="47.142857"
       y="645.2193" />
  </g>
</svg>
